<svg xmlns="http://www.w3.org/2000/svg" xmlns:xlink="http://www.w3.org/1999/xlink" width="25" height="25" viewBox="0 0 30 30">
  <defs>
    <clipPath id="clip-path">
      <rect id="Rectangle_14767" data-name="Rectangle 14767" width="30" height="30" transform="translate(1138 138)" fill="#fff" stroke="#707070" stroke-width="1"/>
    </clipPath>
  </defs>
  <g id="Mask_Group_21" data-name="Mask Group 21" transform="translate(-1138 -138)" clip-path="url(#clip-path)">
    <g id="chat-chat-svgrepo-com" transform="translate(1139.968 142.201)">
      <path id="Path_9" data-name="Path 9" d="M84.5,164.134v-8.748A4,4,0,0,0,80.51,151.4H67.286a4,4,0,0,0-3.986,3.986v8.748a4,4,0,0,0,3.658,3.971s-.591,4.591.145,4.591,5.566-4.577,5.566-4.577h7.838A4,4,0,0,0,84.5,164.134Zm-12.53,2.213-.514.485c-.009.009-1.019.966-2.163,1.982-.251.222-.479.423-.688.606.056-.618.115-1.081.115-1.087l.236-1.841-1.85-.154a2.226,2.226,0,0,1-2.03-2.2v-8.748a2.23,2.23,0,0,1,2.213-2.213H80.51a2.23,2.23,0,0,1,2.213,2.213v8.748a2.23,2.23,0,0,1-2.213,2.213Z" transform="translate(-63.3 -151.4)" fill="#707070"/>
      <path id="Path_10" data-name="Path 10" d="M479.093,337.307a.885.885,0,0,0-.358,1.734,2.5,2.5,0,0,1,1.988,2.438v5.23a2.5,2.5,0,0,1-2.136,2.464l-.966.139.23.948c.059.239.115.5.171.748-.52-.485-1.1-1.04-1.631-1.557l-.257-.254H471.18a2.483,2.483,0,0,1-1.395-.254.887.887,0,0,0-1,1.465,4.09,4.09,0,0,0,2.393.561h4.231c.3.287.807.777,1.329,1.265.479.446.875.8,1.176,1.061.591.5.866.682,1.229.682a.929.929,0,0,0,.733-.357c.3-.381.3-.86.015-2.325-.041-.213-.086-.42-.127-.609a4.287,4.287,0,0,0,2.73-3.977v-5.23A4.276,4.276,0,0,0,479.093,337.307Z" transform="translate(-456.431 -331.797)" fill="#707070"/>
    </g>
  </g>
</svg>
