<svg xmlns="http://www.w3.org/2000/svg" xmlns:xlink="http://www.w3.org/1999/xlink" width="50" height="50" viewBox="0 0 50 50">
  <defs>
    <clipPath id="clip-path">
      <rect id="Rectangle_14786" data-name="Rectangle 14786" width="50" height="50" transform="translate(90 631)" fill="#fff" stroke="#707070" stroke-width="1"/>
    </clipPath>
  </defs>
  <g id="Mask_Group_38" data-name="Mask Group 38" transform="translate(-90 -631)" clip-path="url(#clip-path)">
    <g id="affordable-rebrand_ivgidq" transform="translate(84.466 624.173)">
      <path id="Path_851" data-name="Path 851" d="M25.522,29.586a.145.145,0,0,1-.041-.277l21.561-7.165a1.93,1.93,0,0,1,2.4,1.84V30.34Z" transform="translate(-9.774 -8.468)" fill="#f2685b" stroke="#231f20" stroke-width="1" fill-rule="evenodd"/>
      <path id="Path_852" data-name="Path 852" d="M29.374,32.589l22.5-5.271a1.916,1.916,0,0,1,2.31,1.923v6.275Z" transform="translate(-11.302 -10.462)" fill="#f2685b" stroke="#231f20" stroke-width="1" fill-rule="evenodd"/>
      <path id="Path_853" data-name="Path 853" d="M47.76,60.632h-23.9a5.748,5.748,0,0,1-5.692-5.776V39.431a5.748,5.748,0,0,1,5.692-5.776h23.9a5.748,5.748,0,0,1,5.686,5.776V54.857a5.748,5.748,0,0,1-5.686,5.776" transform="translate(-7 -12.91)" fill="none" fill-rule="evenodd"/>
      <path id="Path_854" data-name="Path 854" d="M47.76,60.632h-23.9a5.748,5.748,0,0,1-5.692-5.776V39.431a5.748,5.748,0,0,1,5.692-5.776h23.9a5.748,5.748,0,0,1,5.686,5.776V54.857a5.748,5.748,0,0,1-5.686,5.776Z" transform="translate(-7 -12.91)" fill="#fff2e3" stroke="#231f20" stroke-width="1"/>
      <path id="Path_855" data-name="Path 855" d="M47.74,60.536H24.311a5.643,5.643,0,0,1-5.581-5.665V39.75a5.637,5.637,0,0,1,5.581-5.658H47.74a5.637,5.637,0,0,1,5.575,5.658V54.871a5.637,5.637,0,0,1-5.575,5.665" transform="translate(-7.215 -13.078)" fill="#f2685b" fill-rule="evenodd" opacity="0.5"/>
      <path id="Path_856" data-name="Path 856" d="M51.947,36.1a5.951,5.951,0,0,1,2,4.448V55.428a5.727,5.727,0,0,1-5.533,5.824H24.665a5.434,5.434,0,0,1-4.24-2.075" transform="translate(-7.866 -13.85)" fill="#fff2e3" fill-rule="evenodd"/>
      <path id="Path_857" data-name="Path 857" d="M72.031,57.675H68.808A3.341,3.341,0,0,1,65.5,54.327V53.9a3.333,3.333,0,0,1,3.313-3.341h3.223A3.333,3.333,0,0,1,75.345,53.9v.422a3.341,3.341,0,0,1-3.314,3.348" transform="translate(-25.17 -19.402)" fill="none" fill-rule="evenodd"/>
      <path id="Path_858" data-name="Path 858" d="M72.031,57.675H68.808A3.341,3.341,0,0,1,65.5,54.327V53.9a3.333,3.333,0,0,1,3.313-3.341h3.223A3.333,3.333,0,0,1,75.345,53.9v.422A3.341,3.341,0,0,1,72.031,57.675Z" transform="translate(-25.17 -19.402)" fill="#f1695c" stroke="#000001" stroke-width="1"/>
      <circle id="Ellipse_10313" data-name="Ellipse 10313" cx="31" cy="31" r="31" transform="translate(-0.466 -0.173)" fill="none"/>
    </g>
  </g>
</svg>
