<svg xmlns="http://www.w3.org/2000/svg" xmlns:xlink="http://www.w3.org/1999/xlink" width="50" height="50" viewBox="0 0 50 50">
  <defs>
    <clipPath id="clip-path">
      <rect id="Rectangle_14784" data-name="Rectangle 14784" width="50" height="50" transform="translate(90 631)" fill="#fff" stroke="#707070" stroke-width="1"/>
    </clipPath>
  </defs>
  <g id="Mask_Group_36" data-name="Mask Group 36" transform="translate(-90 -631)" clip-path="url(#clip-path)">
    <g id="secure-rebrand_x6f8yq" transform="translate(81 621)">
      <circle id="Ellipse_10311" data-name="Ellipse 10311" cx="35" cy="35" r="35" fill="none"/>
      <path id="Path_842" data-name="Path 842" d="M41.425,20.675s-5.9,5.888-18.38,6.28l.295,15.6A21.044,21.044,0,0,0,36.117,61.693a32.079,32.079,0,0,0,5.406,1.668,51,51,0,0,0,5.406-1.668A21.367,21.367,0,0,0,59.707,42.557L60,26.955C47.322,26.464,41.425,20.675,41.425,20.675Z" transform="translate(-6.983 -6.265)" fill="rgba(255,243,227,0.8)" stroke="#000" stroke-width="1" fill-rule="evenodd"/>
      <path id="Path_843" data-name="Path 843" d="M26.681,53.548c8.551-9.126,17.1-18.35,25.457-27.672-7.274-1.864-10.714-5.2-10.714-5.2s-5.9,5.888-18.38,6.28l.295,15.6a19.816,19.816,0,0,0,3.341,10.99" transform="translate(-6.983 -6.265)" fill="rgba(255,111,97,0.5)" fill-rule="evenodd"/>
      <path id="Path_844" data-name="Path 844" d="M41.72,22.391s5.66,5.789,18.243,6.28l.148-3.827c-12.683-.491-18.391-6.28-18.391-6.28s-5.992,5.887-18.675,6.28l.1,3.827C35.728,28.18,41.72,22.391,41.72,22.391Zm-.295,39.643s-5.5-13.051-17-13.835a21.136,21.136,0,0,0,11.7,12.756,32.108,32.108,0,0,0,5.407,1.668,50.994,50.994,0,0,0,5.406-1.668A21.133,21.133,0,0,0,58.625,48.2C46.929,49.081,41.425,62.034,41.425,62.034Z" transform="translate(-6.983 -5.625)" fill="#ff6f61" stroke="#000" stroke-width="1" fill-rule="evenodd"/>
      <path id="Path_845" data-name="Path 845" d="M43.123,54.45l-6.879-6.28a1.321,1.321,0,1,1,1.769-1.963l4.914,4.415L53.64,38.357a1.172,1.172,0,0,1,1.769-.1,1.277,1.277,0,0,1,.1,1.864Z" transform="translate(-10.844 -11.484)" fill="#ff6f61" stroke="#000" stroke-width="1" fill-rule="evenodd"/>
    </g>
  </g>
</svg>
