<svg xmlns="http://www.w3.org/2000/svg" width="24.419" height="24.419" viewBox="0 0 24.419 24.419">
  <path id="Icon_fa-solid-location-crosshairs" data-name="Icon fa-solid-location-crosshairs" d="M12.209,0a1.525,1.525,0,0,1,1.526,1.526V3.181a9.15,9.15,0,0,1,7.5,7.5h1.655a1.526,1.526,0,0,1,0,3.052H21.238a9.15,9.15,0,0,1-7.5,7.5v1.655a1.526,1.526,0,0,1-3.052,0V21.238a9.15,9.15,0,0,1-7.5-7.5H1.526a1.526,1.526,0,0,1,0-3.052H3.181a9.15,9.15,0,0,1,7.5-7.5V1.526A1.525,1.525,0,0,1,12.209,0ZM6.1,12.209a6.1,6.1,0,1,0,6.1-6.1A6.1,6.1,0,0,0,6.1,12.209Zm6.1-3.815a3.815,3.815,0,1,1-3.815,3.815,3.815,3.815,0,0,1,3.815-3.815Z" fill="#ff7165"/>
</svg>
