<svg xmlns="http://www.w3.org/2000/svg" xmlns:xlink="http://www.w3.org/1999/xlink" width="25" height="25" viewBox="0 0 30 30">
  <defs>
    <clipPath id="clip-path">
      <rect id="Rectangle_14764" data-name="Rectangle 14764" width="30" height="30" transform="translate(1138 138)" fill="#fff" stroke="#707070" stroke-width="1"/>
    </clipPath>
  </defs>
  <g id="Mask_Group_18" data-name="Mask Group 18" transform="translate(-1138 -138)" clip-path="url(#clip-path)">
    <g id="whatsapp-svgrepo-com_1_" data-name="whatsapp-svgrepo-com (1)" transform="translate(1141.372 140.253)">
      <path id="Path_11" data-name="Path 11" d="M13.071.014A11.971,11.971,0,0,0,2.993,17.4l-1.27,6.167a.466.466,0,0,0,.564.547l6.043-1.432A11.967,11.967,0,1,0,13.071.014Zm7.21,18.578a9.376,9.376,0,0,1-10.8,1.767l-.842-.419-3.7.878.78-3.786-.415-.812A9.378,9.378,0,0,1,7.031,5.341,9.37,9.37,0,1,1,20.282,18.592Z" transform="translate(-1.69 0)" fill="#707070"/>
      <path id="Path_12" data-name="Path 12" d="M116.417,115.78l-2.318-.666a.864.864,0,0,0-.855.225l-.567.577a.844.844,0,0,1-.918.194,12.374,12.374,0,0,1-3.992-3.52.844.844,0,0,1,.067-.936l.495-.64a.864.864,0,0,0,.107-.878l-.975-2.206a.864.864,0,0,0-1.35-.309,3.9,3.9,0,0,0-1.508,2.3c-.165,1.624.532,3.671,3.166,6.129,3.043,2.84,5.479,3.215,7.066,2.831a3.9,3.9,0,0,0,2.073-1.807A.864.864,0,0,0,116.417,115.78Z" transform="translate(-98.643 -101.219)" fill="#707070"/>
    </g>
  </g>
</svg>
